<svg xmlns="http://www.w3.org/2000/svg" width="60" height="27" fill="none"><g fill="#fff" clip-path="url(#mirror-media-icon_svg__a)"><path d="M12.685 1.396a12.223 12.223 0 0 1 8.655 20.862 12.223 12.223 0 0 1-13.318 2.65A12.22 12.22 0 0 1 .48 13.617 12.22 12.22 0 0 1 12.7 1.396h-.015Zm.014-.461A12.586 12.586 0 0 0 3.73 4.65a12.6 12.6 0 0 0-3.715 8.965 12.6 12.6 0 0 0 3.715 8.969A12.585 12.585 0 0 0 12.7 26.3a12.6 12.6 0 0 0 8.968-3.715 12.598 12.598 0 0 0 3.712-8.97 12.596 12.596 0 0 0-3.712-8.964A12.6 12.6 0 0 0 12.7.934Z"></path><path d="M13.644 12.598h7.285v-1.021c0-.681-.733-.63-.733-.63h-.501V9.285h1.237v-.9a.732.732 0 0 0-.794-.733h-2.369V6.92h-1.636v.732H12.97v1.099s-.022.545.7.545h.537v1.651H12.97v1.05a.612.612 0 0 0 .674.601Zm2.196-3.295h2.197v1.651H15.84v-1.65ZM19.27 21.457v-2.262h1.659V13.15h-7.977v5.21a.787.787 0 0 0 .79.834h.857v2.266h-1.61a2.643 2.643 0 0 1-.81 1.65h2.49a1.495 1.495 0 0 0 1.574-1.588v-2.325h1.373v3.914h1.581c1.014 0 2.197-1.651 2.197-1.651l-2.124-.004Zm-2.346-3.379a1.9 1.9 0 0 1-1.322-.534h-.992v-2.746h1a1.885 1.885 0 0 1 1.321-.534c.494-.002.968.19 1.322.534h1.032v2.746h-1.032a1.9 1.9 0 0 1-1.33.527v.007Z"></path><path d="M16.898 14.74a1.44 1.44 0 0 0-1.017 2.46c.27.27.635.423 1.017.424a1.442 1.442 0 0 0 0-2.884Zm0 2.427a.985.985 0 1 1 .699-1.683.985.985 0 0 1-.699 1.683ZM12.227 22.13c.111-.21.185-.437.216-.673H10.11v-5.56h2.292v-1a.586.586 0 0 0-.67-.652H10.11v-1.647h2.332v-1.717a1.7 1.7 0 0 0-.432-1.043L9.763 7.59a.611.611 0 0 0-.864 0L6.644 9.845a1.687 1.687 0 0 0-.432 1.04v1.713c0 .004.198-.19.436-.428l2.248-2.248a.611.611 0 0 1 .863 0l1.03 1.029H8.957a1.284 1.284 0 0 0-.908.417l-1.42 1.42h1.83v1.465H6.168v1.032a.564.564 0 0 0 .64.619H8.46v5.56H6.168s.527 1.651 1.498 1.651h3.195c.09 0 .18-.01.268-.029a2.01 2.01 0 0 0 .977-.758l.022-.033.066-.102a.402.402 0 0 0 .033-.062Z"></path><path d="M11.213 19.198a1.102 1.102 0 1 0 0-2.203 1.102 1.102 0 0 0 0 2.203ZM7.387 19.678c.259-.289.411-.657.432-1.043v-2.197l-.435.432-.78.784a1.699 1.699 0 0 0-.432 1.043v2.196l.436-.432.78-.783ZM34.126 13.312h1.739v4.261h-1.74v-4.261ZM36.974 13.312h2.929c1.464 0 1.987.523 1.987 1.098 0 .575-.432.926-1.24 1.04 1.098.088 1.17.49 1.189 1.061.033.842.084.927.333.985v.055h-1.878c-.135-.143-.186-.384-.186-.867 0-.733-.176-.894-.733-.894h-.662v1.761H36.97l.004-4.24Zm1.742 1.794h.538c.703 0 .89-.304.89-.553 0-.322-.209-.538-.9-.538h-.528v1.09ZM42.919 13.312h2.929c1.464 0 1.991.523 1.991 1.098 0 .575-.436.926-1.245 1.04 1.099.088 1.172.49 1.19 1.061.033.842.084.927.333.985v.055h-1.874c-.136-.143-.187-.384-.187-.867 0-.733-.175-.894-.732-.894h-.663v1.761H42.92v-4.24Zm1.742 1.794h.539c.703 0 .89-.304.89-.553 0-.322-.206-.538-.901-.538h-.528v1.09ZM51.298 17.654c-2.288 0-2.599-.857-2.599-2.197s.311-2.215 2.6-2.215c2.467 0 2.602 1.033 2.602 2.215 0 1.183-.135 2.197-2.603 2.197Zm0-.667c.703 0 .806-.366.806-1.545 0-1.178-.103-1.544-.806-1.544-.703 0-.787.366-.787 1.544 0 1.18.095 1.53.765 1.53l.022.015ZM54.813 13.312h2.928c1.465 0 1.992.523 1.992 1.098 0 .575-.436.926-1.245 1.04 1.098.088 1.172.49 1.194 1.061.029.842.08.927.329.985v.055h-1.874c-.136-.143-.187-.384-.187-.867 0-.733-.176-.894-.732-.894h-.663v1.761h-1.739l-.003-4.24Zm1.739 1.794h.538c.703 0 .89-.304.89-.553 0-.322-.206-.538-.901-.538h-.527v1.09ZM27.748 18.258l-.428-2.772h-.022v2.772h-1.552v-4.946h2.563l.695 4.953-1.256-.007Zm3.259 0v-2.772h-.019l-.406 2.772h-1.15l.674-4.953h2.519v4.953h-1.618ZM34.034 18.92h4.276v.813h-2.537v.853h2.383v.809h-2.383v.974h2.65v.827h-4.392l.003-4.276ZM39.196 18.92h2.562c1.72 0 2.453.513 2.453 1.992 0 1.544-.34 2.27-2.628 2.27h-2.387V18.92Zm1.742 3.522h.465c.81 0 1.099-.187 1.099-1.465 0-1.035-.143-1.317-1.066-1.317h-.487l-.01 2.782ZM45.188 18.92h1.74v4.276h-1.74V18.92ZM49.406 18.92h2.174l1.83 4.261h-1.8l-.268-.812h-1.771l-.26.812H47.51l1.896-4.26Zm1.054.776-.611 1.896h1.263l-.652-1.896Z"></path><path d="M25.746 18.258h1.552v4.938h-1.552v-4.938Zm2.764 4.92-.762-4.92h1.241l.216 1.53h.023l.208-1.53h1.146l-.732 4.92h-1.34Zm2.497-4.92h1.618v4.938h-1.618v-4.938Z"></path></g><defs><clipPath id="mirror-media-icon_svg__a"><path fill="#fff" d="M0 .935h60V26.3H0z"></path></clipPath></defs></svg>